<!DOCTYPE svg PUBLIC "-//W3C//DTD SVG 20010904//EN" "http://www.w3.org/TR/2001/REC-SVG-20010904/DTD/svg10.dtd">
<svg version="1.0" xmlns="http://www.w3.org/2000/svg" width="300px" height="300px" viewBox="0 0 3000 3000" preserveAspectRatio="xMidYMid meet">
<g id="layer101" fill="#01ff78" stroke="none">
 <path d="M1339 2850 c-296 -34 -582 -174 -799 -390 -174 -173 -296 -386 -355 -620 -61 -247 -61 -433 0 -680 92 -365 338 -677 677 -860 101 -54 183 -86 298 -115 289 -72 538 -59 813 42 l67 25 0 667 0 666 -144 144 c-137 137 -145 143 -175 136 -69 -15 -148 41 -158 112 -7 52 11 88 87 180 53 64 64 72 104 78 78 12 144 -36 161 -115 5 -28 45 -73 197 -226 158 -159 191 -197 198 -230 5 -21 10 -308 10 -636 0 -423 3 -598 11 -598 16 0 220 207 267 272 205 282 300 660 247 988 -21 124 -67 284 -111 379 -54 118 -179 295 -274 391 -96 95 -273 220 -391 274 -81 37 -245 88 -344 105 -84 16 -296 21 -386 11z m256 -1144 c87 -40 136 -117 136 -210 0 -71 -25 -129 -77 -174 -119 -105 -299 -69 -365 73 -24 51 -25 154 -3 201 21 43 93 108 136 121 57 19 119 15 173 -11z"/>
 </g>

</svg>